<?xml version="1.0" encoding="utf-8"?><svg xmlns="http://www.w3.org/2000/svg" xmlns:xlink="http://www.w3.org/1999/xlink" width="1366" height="300" preserveAspectRatio="xMidYMid" viewBox="0 0 1366 300" style="z-index:1;margin-right:-2px;display:block;background-repeat-y:initial;background-repeat-x:initial;animation-play-state:paused" ><g transform="translate(683,150) scale(1,1) translate(-683,-150)" style="transform:matrix(1, 0, 0, 1, 0, 0);animation-play-state:paused" ><linearGradient id="lg-0.03093816808512284" x1="0" x2="1" y1="0" y2="0" style="animation-play-state:paused" ><stop stop-color="#c5c7ca" offset="0" style="animation-play-state:paused" ></stop>

  
<stop stop-color="#c5c7ca" offset="1" style="animation-play-state:paused" ></stop></linearGradient>
<path d="M 0 0 L 0 146.895 Q 136.6 218.686 273.2 167.453 T 546.4 157.087 T 819.6 152.776 T 1092.8 101.86 T 1366 149.444 L 1366 0 Z" fill="url(#lg-0.03093816808512284)" opacity="0.4" style="opacity:0.4;animation-play-state:paused" ></path>
<path d="M 0 0 L 0 150.706 Q 136.6 195.71 273.2 169.716 T 546.4 190.504 T 819.6 118.863 T 1092.8 119.577 T 1366 116.631 L 1366 0 Z" fill="url(#lg-0.03093816808512284)" opacity="0.4" style="opacity:0.4;animation-play-state:paused" ></path>
<path d="M 0 0 L 0 139.139 Q 136.6 171.361 273.2 138.316 T 546.4 152.608 T 819.6 163.29 T 1092.8 139.154 T 1366 146.474 L 1366 0 Z" fill="url(#lg-0.03093816808512284)" opacity="0.4" style="opacity:0.4;animation-play-state:paused" ></path>
<path d="M 0 0 L 0 143.35 Q 136.6 238.744 273.2 202.787 T 546.4 99.6196 T 819.6 157.336 T 1092.8 159.08 T 1366 96.4024 L 1366 0 Z" fill="url(#lg-0.03093816808512284)" opacity="0.4" style="opacity:0.4;animation-play-state:paused" ></path>
<path d="M 0 0 L 0 146.877 Q 136.6 172.276 273.2 138.336 T 546.4 110.824 T 819.6 163.802 T 1092.8 126.082 T 1366 115.685 L 1366 0 Z" fill="url(#lg-0.03093816808512284)" opacity="0.4" style="opacity:0.4;animation-play-state:paused" ></path></g></svg>