<?xml version="1.0" encoding="utf-8"?><svg xmlns="http://www.w3.org/2000/svg" xmlns:xlink="http://www.w3.org/1999/xlink" width="1366" height="300" preserveAspectRatio="xMidYMid" viewBox="0 0 1366 300" style="z-index:1;margin-right:-2px;display:block;background-repeat-y:initial;background-repeat-x:initial;animation-play-state:paused" ><g transform="translate(683,150) scale(1,1) translate(-683,-150)" style="transform:matrix(1, 0, 0, 1, 0, 0);animation-play-state:paused" ><linearGradient id="lg-0.751198407154003" x1="0" x2="1" y1="0" y2="0" style="animation-play-state:paused" ><stop stop-color="#2a4685" offset="0" style="animation-play-state:paused" ></stop>

  
<stop stop-color="#2a4685" offset="1" style="animation-play-state:paused" ></stop></linearGradient>
<path d="M 0 0 L 0 211.198 Q 136.6 128.592 273.2 75.5176 T 546.4 78.6525 T 819.6 146.076 T 1092.8 112.367 T 1366 143.787 L 1366 0 Z" fill="url(#lg-0.751198407154003)" opacity="0.4" style="opacity:0.4;animation-play-state:paused" ></path>
<path d="M 0 0 L 0 122.843 Q 136.6 140.75 273.2 108.946 T 546.4 101.42 T 819.6 159.034 T 1092.8 128.291 T 1366 69.6101 L 1366 0 Z" fill="url(#lg-0.751198407154003)" opacity="0.4" style="opacity:0.4;animation-play-state:paused" ></path>
<path d="M 0 0 L 0 220.526 Q 136.6 183.176 273.2 158.156 T 546.4 184.65 T 819.6 80.8591 T 1092.8 109.187 T 1366 122.884 L 1366 0 Z" fill="url(#lg-0.751198407154003)" opacity="0.4" style="opacity:0.4;animation-play-state:paused" ></path>
<path d="M 0 0 L 0 162.309 Q 136.6 151.661 273.2 123.568 T 546.4 60.6926 T 819.6 73.7258 T 1092.8 110.864 T 1366 35.0817 L 1366 0 Z" fill="url(#lg-0.751198407154003)" opacity="0.4" style="opacity:0.4;animation-play-state:paused" ></path>
<path d="M 0 0 L 0 204.122 Q 136.6 142.392 273.2 122.108 T 546.4 191.992 T 819.6 168.425 T 1092.8 147.306 T 1366 94.1312 L 1366 0 Z" fill="url(#lg-0.751198407154003)" opacity="0.4" style="opacity:0.4;animation-play-state:paused" ></path></g></svg>